# AST/ASF file generated using VICON BodyLanguage
# -----------------------------------------------
:version 1.10
:name VICON
:units
  mass 1.0
  length 0.45
  angle deg
:documentation
   .ast/.asf automatically generated from VICON data using
   VICON BodyBuilder and BodyLanguage model FoxedUp or BRILLIANT.MOD
:root
   order TX TY TZ RX RY RZ
   axis XYZ
   position 0 0 0  
   orientation 0 0 0 
:bonedata
  begin
     id 1 
     name lhipjoint
     direction 0.64773 -0.699417 0.302095 
     length 2.48597 
     axis 0 0 0  XYZ
  end
  begin
     id 2 
     name lfemur
     direction 0.34202 -0.939693 0  
     length 6.71947  
     axis 0 0 20  XYZ
    dof rx ry rz
    limits (-160.0 20.0)
           (-70.0 70.0)
           (-60.0 70.0)
  end
  begin
     id 3 
     name ltibia
     direction 0.34202 -0.939693 0   
     length 8.08777   
     axis 0 0 20   XYZ
    dof rx
    limits (-10.0 170.0)
  end
  begin
     id 4 
     name lfoot
     direction 0.0808503 -0.222134 0.971658   
     length 2.08264   
     axis -90 7.62852e-016 20   XYZ
    dof rx rz
    limits (-45.0 90.0)
           (-70.0 20.0)
  end
  begin
     id 5 
     name ltoes
     direction 1.53502e-011 -4.22007e-011 1   
     length 1.04662   
     axis -90 7.62852e-016 20   XYZ
    dof rx
    limits (-90.0 20.0)
  end
  begin
     id 6 
     name rhipjoint
     direction -0.610924 -0.726792 0.313919   
     length 2.39233  
     axis 0 0 0  XYZ 
  end
  begin
     id 7 
     name rfemur
     direction -0.34202 -0.939693 0   
     length 6.96955   
     axis 0 0 -20   XYZ
    dof rx ry rz
    limits (-160.0 20.0)
           (-70.0 70.0)
           (-70.0 60.0)
  end
  begin
     id 8 
     name rtibia
     direction -0.34202 -0.939693 0   
     length 8.19584   
     axis 0 0 -20   XYZ
    dof rx
    limits (-10.0 170.0)
 end
 begin
     id 9 
     name rfoot
     direction -0.077777 -0.213691 0.9738   
     length 2.07539  
     axis -90 -7.62852e-016 -20   XYZ
    dof rx rz
    limits (-45.0 90.0)
           (-20.0 70.0)
  end
  begin
     id 10 
     name rtoes
     direction -1.53558e-011 -4.22006e-011 1   
     length 1.04381   
     axis -90 -7.62852e-016 -20   XYZ
    dof rx
    limits (-90.0 20.0)
  end
  begin
     id 11 
     name lowerback
     direction -0.00971646 0.996074 0.0879841   
     length 1.67643   
     axis 0 0 0   XYZ
    dof rx ry rz
    limits (-20.0 45.0)
           (-30.0 30.0)
           (-30.0 30.0)
  end
  begin
     id 12 
     name upperback
     direction 0.0127391 0.991676 0.128127   
     length 1.63741   
     axis 0 0 0   XYZ
    dof rx ry rz
    limits (-20.0 45.0)
           (-30.0 30.0)
           (-30.0 30.0)
  end
  begin
     id 13 
     name thorax
     direction 0.0167583 0.996049 0.0872067   
     length 1.65931   
     axis 0 0 0   XYZ
    dof rx ry rz
    limits (-20.0 45.0)
           (-30.0 30.0)
           (-30.0 30.0)
  end
  begin
     id 14 
     name lowerneck
     direction -0.0317829 0.998312 0.0486079   
     length 1.79021   
     axis 0 0 0   XYZ
    dof rx ry rz
    limits (-20.0 45.0)
           (-30.0 30.0)
           (-30.0 30.0)
  end
  begin
     id 15 
     name upperneck
     direction 0.0896851 0.972452 -0.215159   
     length 1.78797   
     axis 0 0 0   XYZ
    dof rx ry rz
    limits (-20.0 45.0)
           (-30.0 30.0)
           (-30.0 30.0)
  end
  begin
     id 16
     name head
     direction 0.0310949 0.996503 -0.0775582  
     length 1.81549  
     axis 0 0 0   XYZ
    dof rx ry rz
    limits (-20.0 45.0)
           (-30.0 30.0)
           (-30.0 30.0)
  end
  begin
     id 17 
     name lclavicle
     direction 0.853638 0.502051 -0.138733  
     length 3.31627  
     axis 0 0 0   XYZ
    dof ry rz
    limits (-20.0 10.0)
           (0.0 20.0)
  end
  begin
     id 18 
     name lhumerus
     direction 1 -4.48962e-011 -1.41788e-018   
     length 5.54893   
     axis 180 -30 -90   XYZ
    dof rx ry rz
    limits (-60.0 90.0)
           (-90.0 90.0)
           (-90.0 90.0)
  end
  begin
     id 19
     name lradius
     direction 1 -4.48962e-011 -4.95754e-027   
     length 3.02898   
     axis 180 -30 -90   XYZ
    dof rx
    limits (-10.0 170.0)
  end
  begin
     id 20
     name lwrist
     direction 1 -4.48952e-011 -1.03764e-026   
     length 1.51449   
     axis 9.09556e-015 90 90   XYZ
    dof ry
    limits (-180.0 0.0)
 end
  begin
     id 21 
     name lhand
     direction 1 -4.4902e-011 -2.07528e-026   
     length 0.640951   
     axis 1.3242e-014 90 90   XYZ
    dof rx rz
    limits (-90.0 90.0)
           (-45.0 45.0)
  end
  begin
     id 22 
     name lfingers
     direction 1 -4.49014e-011 -4.15056e-026   
     length 0.516751   
     axis 2.64841e-014 90 90   XYZ
    dof rx
    limits (0.0 90.0)
  end
  begin
     id 23
     name lthumb
     direction 0.707107 -6.35008e-011 0.707107   
     length 0.741954   
     axis -90 45 2.85299e-015   XYZ
    dof rx rz
    limits (-45.0 45.0)
           (-45.0 45.0)
  end
  begin
     id 24 
     name rclavicle
     direction -0.888531 0.455324 -0.0565039   
     length 3.20126  
     axis 0 0 0   XYZ 
    dof ry rz
    limits (-10.0 20.0)
           (-20.0 0.0)
  end
  begin
     id 25 
     name rhumerus
     direction -1 -4.48946e-011 -8.98298e-028  
     length 5.3519   
     axis 180 30 90   XYZ
    dof rx ry rz
    limits (-90.0 60.0)
           (-90.0 90.0)
           (-90.0 90.0)
  end
  begin
     id 26 
     name rradius
     direction -1 -4.4899e-011 -3.18779e-027   
     length 3.02531   
     axis 180 30 90   XYZ
    dof rx
    limits (-10.0 170.0)
  end
  begin
     id 27 
     name rwrist
     direction -1 -4.4897e-011 -1.03764e-026   
     length 1.51266   
     axis 9.09556e-015 -90 -90   XYZ
    dof ry
    limits (-180.0 0.0)
  end
  begin
     id 28
     name rhand
     direction -1 -4.48941e-011 -2.07528e-026   
     length 0.78389   
     axis 1.3242e-014 -90 -90   XYZ
    dof rx rz
    limits (-90.0 90.0)
           (-45.0 45.0)
  end
  begin
     id 29
     name rfingers
     direction -1 -4.49012e-011 -4.15056e-026   
     length 0.631992   
     axis 2.64841e-014 -90 -90   XYZ
    dof rx
    limits (0.0 90.0)
  end
  begin
     id 30
     name rthumb
     direction -0.707107 -6.3496e-011 0.707107   
     length 0.907418   
     axis -90 -45 -2.85299e-015   XYZ
    dof rx rz
    limits (-45.0 45.0)
           (-45.0 45.0)
  end
:hierarchy
  begin
    root lhipjoint rhipjoint lowerback
    lhipjoint lfemur
    lfemur ltibia
    ltibia lfoot
    lfoot ltoes
    rhipjoint rfemur
    rfemur rtibia
    rtibia rfoot
    rfoot rtoes
    lowerback upperback
    upperback thorax
    thorax lowerneck lclavicle rclavicle
    lowerneck upperneck
    upperneck head
    lclavicle lhumerus
    lhumerus lradius
    lradius lwrist
    lwrist lhand lthumb
    lhand lfingers
    rclavicle rhumerus
    rhumerus rradius
    rradius rwrist
    rwrist rhand rthumb
    rhand rfingers
  end

#!OML:ASF E:\Style3\Style3.ASF
:FULLY-SPECIFIED
:DEGREES
117
root -0.712458 17.7164 -1.123 -142.901 51.9118 -179.978
lowerback 16.2977 3.32952 -4.68208
upperback -2.36885 3.29321 -1.84407
thorax -11.9746 1.79238 -0.257038
lowerneck -6.43768 7.93419 2.10371
upperneck -17.4365 11.6684 -4.04165
head -4.28957 6.45693 -1.92755
rclavicle 8.80616e-014 -1.40143e-014
rhumerus -12.4371 35.4524 -69.5374
rradius 146.913
rwrist -49.6582
rhand 28.8315 23.3958
rfingers 7.12502
rthumb 52.6534 3.68643
lclavicle 8.80616e-014 -1.40143e-014
lhumerus -21.6124 -41.0756 81.9889
lradius 145.929
lwrist 46.2466
lhand 15.8948 8.85107
lfingers 7.12502
lthumb 40.6932 33.8642
rfemur -31.6334 1.7392 13.6202
rtibia 11.5684
rfoot -27.8847 -41.8401
rtoes 16.4014
lfemur -53.4441 -23.7066 -0.292618
ltibia 16.4474
lfoot -3.42382 -2.48688
ltoes -21.4217
118
root -0.709222 17.7148 -1.12597 -142.87 51.9456 -179.922
lowerback 16.1586 3.31427 -4.74144
upperback -2.31763 3.28118 -1.7487
thorax -11.8439 1.79353 -0.104904
lowerneck -6.62036 8.01349 2.13884
upperneck -17.2487 11.7391 -4.1832
head -4.17225 6.49098 -1.9563
rclavicle -3.06128e-014 -3.79679e-014
rhumerus -11.7976 36.0637 -67.3851
rradius 147.062
rwrist -49.8366
rhand 28.2609 23.0441
rfingers 7.12502
rthumb 52.1368 3.02001
lclavicle -3.06128e-014 -3.79679e-014
lhumerus -21.5649 -41.2186 80.269
lradius 146.132
lwrist 46.0048
lhand 15.8466 8.99504
lfingers 7.12502
lthumb 40.6479 34.0223
rfemur -31.5399 1.91552 13.5669
rtibia 11.4319
rfoot -28.1249 -41.9077
rtoes 16.7266
lfemur -53.4511 -23.7899 -0.18885
ltibia 16.458
lfoot -3.41481 -2.32517
ltoes -21.5505
119
root -0.708742 17.7152 -1.12721 -142.973 51.9264 -179.984
lowerback 16.1666 3.31366 -4.80871
upperback -2.2734 3.27561 -1.66982
thorax -11.8074 1.7976 0.0226452
lowerneck -6.64773 8.04149 2.15151
upperneck -17.2701 11.7607 -4.32684
head -4.16392 6.50836 -2.00422
rclavicle -9.69075e-014 7.31528e-014
rhumerus -11.1785 36.4573 -65.1759
rradius 147.201
rwrist -49.9042
rhand 27.6827 22.4808
rfingers 7.12502
rthumb 51.612 2.14746
lclavicle -9.69075e-014 7.31528e-014
lhumerus -21.2985 -41.5228 78.5003
lradius 146.306
lwrist 45.7802
lhand 15.9232 9.45086
lfingers 7.12502
lthumb 40.7199 34.4556
rfemur -31.4094 1.98097 13.5041
rtibia 11.3242
rfoot -28.2136 -42.0009
rtoes 16.9818
lfemur -53.4115 -23.8578 -0.222457
ltibia 16.4717
lfoot -3.41926 -2.30358
ltoes -21.3785
120
root -0.709144 17.717 -1.12562 -143.193 51.8606 -180.098
lowerback 16.3693 3.26331 -4.77004
upperback -2.26071 3.20508 -1.65806
thorax -11.9066 1.76244 0.0220881
lowerneck -6.66048 8.09231 2.19939
upperneck -17.2461 11.8224 -4.35751
head -4.14578 6.53683 -2.01942
rclavicle -8.66701e-014 -1.03368e-014
rhumerus -10.7067 36.7964 -63.2297
rradius 147.241
rwrist -49.6634
rhand 27.2245 22.3478
rfingers 7.12502
rthumb 51.1952 1.77597
lclavicle -8.66701e-014 -1.03368e-014
lhumerus -21.0669 -42.0133 76.6397
lradius 146.405
lwrist 45.5759
lhand 15.6008 9.64829
lfingers 7.12502
lthumb 40.4169 34.7472
rfemur -31.216 2.08163 13.4101
rtibia 11.2706
rfoot -28.5335 -42.0544
rtoes 17.1603
lfemur -53.2698 -23.8886 -0.4001
ltibia 16.4915
lfoot -3.43096 -2.42875
ltoes -21.5125
121
root -0.709984 17.7187 -1.12368 -143.291 51.8405 -180.141
lowerback 16.5347 3.25757 -4.66651
upperback -2.3014 3.2023 -1.69744
thorax -12.0409 1.75323 -0.0897538
lowerneck -6.61841 8.03796 2.21833
upperneck -17.1915 11.7545 -4.24295
head -4.14204 6.49332 -1.98464
rclavicle -6.37105e-014 -3.45885e-014
rhumerus -10.4761 37.3206 -61.5068
rradius 147.215
rwrist -49.433
rhand 26.5059 22.323
rfingers 7.12502
rthumb 50.54 1.38853
lclavicle -6.37105e-014 -3.45885e-014
lhumerus -21.1406 -42.8198 75.0058
lradius 146.467
lwrist 45.1819
lhand 15.1594 9.2576
lfingers 7.12502
lthumb 40.0017 34.4831
rfemur -31.1297 2.03921 13.4156
rtibia 11.263
rfoot -28.648 -41.9627
rtoes 17.1179
lfemur -53.2045 -23.89 -0.491648
ltibia 16.5194
lfoot -3.44622 -2.48571
ltoes -21.3532
122
root -0.709427 17.7194 -1.1228 -143.318 51.8752 -180.11
lowerback 16.6472 3.30258 -4.55434
upperback -2.33 3.26899 -1.77591
thorax -12.1303 1.77391 -0.265254
lowerneck -6.59062 7.93115 2.32752
upperneck -17.2126 11.6234 -4.13724
head -4.15992 6.4184 -1.9706
rclavicle -5.02925e-014 1.11319e-014
rhumerus -10.3086 37.8563 -59.8539
rradius 147.135
rwrist -49.2794
rhand 25.8183 22.4074
rfingers 7.12502
rthumb 49.9114 1.13827
lclavicle -5.02925e-014 1.11319e-014
lhumerus -21.1562 -43.6897 73.3802
lradius 146.555
lwrist 44.8962
lhand 14.7732 9.25891
lfingers 7.12502
lthumb 39.6381 34.5931
rfemur -31.0922 1.92067 13.5015
rtibia 11.2853
rfoot -28.1772 -42.0286
rtoes 16.6311
lfemur -53.1313 -23.8128 -0.592805
ltibia 16.5621
lfoot -3.49803 -2.55348
ltoes -21.0632
123
root -0.708058 17.7173 -1.12224 -143.313 51.9504 -180.107
lowerback 16.6141 3.28243 -4.55523
upperback -2.33386 3.24331 -1.78369
thorax -12.1138 1.76184 -0.264548
lowerneck -6.53557 7.95168 2.24347
upperneck -17.3348 11.6765 -4.06367
head -4.22377 6.45083 -1.94449
rclavicle -7.68303e-014 9.34288e-015
rhumerus -9.8692 38.5792 -58.09
rradius 147.053
rwrist -48.9893
rhand 25.2015 22.6028
rfingers 7.12502
rthumb 49.3461 1.04334
lclavicle -7.68303e-014 9.34288e-015
lhumerus -21.113 -44.1937 71.8312
lradius 146.602
lwrist 44.7586
lhand 14.4534 9.63301
lfingers 7.12502
lthumb 39.3369 35.0557
rfemur -31.1305 1.98092 13.4584
rtibia 11.3245
rfoot -28.1598 -42.0639
rtoes 16.6378
lfemur -53.1332 -23.7672 -0.635398
ltibia 16.6141
lfoot -3.50775 -2.54428
ltoes -21.2134
124
root -0.70808 17.7153 -1.12063 -143.257 51.9751 -180.073
lowerback 16.554 3.24311 -4.57289
upperback -2.34936 3.19533 -1.73567
thorax -12.0983 1.74271 -0.185798
lowerneck -6.37708 8.0206 2.20794
upperneck -17.5308 11.7747 -4.15572
head -4.31868 6.50989 -1.99059
rclavicle -3.8266e-014 -5.93372e-014
rhumerus -9.36531 39.4274 -56.291
rradius 147.098
rwrist -48.7118
rhand 24.4868 22.5024
rfingers 7.12502
rthumb 48.6895 0.617846
lclavicle -3.8266e-014 -5.93372e-014
lhumerus -21.1567 -44.6608 70.4774
lradius 146.573
lwrist 44.6031
lhand 14.3831 9.82246
lfingers 7.12502
lthumb 39.2707 35.2644
rfemur -31.1988 2.01991 13.4539
rtibia 11.3592
rfoot -27.9822 -42.1161
rtoes 16.3773
lfemur -53.1918 -23.743 -0.59036
ltibia 16.6643
lfoot -3.46941 -2.53131
ltoes -21.2796
125
root -0.705755 17.7144 -1.11882 -143.294 52.0487 -180.127
lowerback 16.506 3.25937 -4.67337
upperback -2.35068 3.20011 -1.72917
thorax -12.0787 1.75222 -0.121066
lowerneck -6.28912 8.02594 2.18721
upperneck -17.6385 11.7909 -4.16491
head -4.37532 6.52214 -2.00248
rclavicle -2.89232e-014 4.49253e-014
rhumerus -8.92157 40.2264 -54.5023
rradius 147.229
rwrist -48.6132
rhand 23.8418 22.162
rfingers 7.12502
rthumb 48.0957 -0.00603832
lclavicle -2.89232e-014 4.49253e-014
lhumerus -21.2481 -45.2696 69.2606
lradius 146.611
lwrist 44.3422
lhand 14.424 9.89107
lfingers 7.12502
lthumb 39.3092 35.3218
rfemur -31.2453 2.02515 13.4066
rtibia 11.4031
rfoot -27.6028 -42.2503
rtoes 15.5464
lfemur -53.2138 -23.7487 -0.616335
ltibia 16.7087
lfoot -3.44939 -2.50712
ltoes -21.3455
126
root -0.703019 17.7142 -1.11817 -143.254 52.0981 -180.069
lowerback 16.4299 3.29391 -4.67681
upperback -2.34205 3.25245 -1.70779
thorax -12.028 1.77745 -0.105072
lowerneck -6.28955 8.0056 2.08858
upperneck -17.6119 11.7698 -4.10777
head -4.37573 6.51351 -1.96667
rclavicle -5.37713e-014 3.99557e-014
rhumerus -8.60468 41.0073 -52.8522
rradius 147.276
rwrist -48.5165
rhand 23.3631 22.0168
rfingers 7.12502
rthumb 47.6542 -0.355712
lclavicle -5.37713e-014 3.99557e-014
lhumerus -21.3512 -45.9282 68.157
lradius 146.702
lwrist 44.163
lhand 14.4192 10.0043
lfingers 7.12502
lthumb 39.3046 35.4364
rfemur -31.256 2.02011 13.4481
rtibia 11.4128
rfoot -27.4067 -42.2988
rtoes 15.3366
lfemur -53.2351 -23.7293 -0.585869
ltibia 16.7889
lfoot -3.47191 -2.45928
ltoes -21.2563
